<?xml version="1.0" standalone="no"?><!DOCTYPE svg PUBLIC "-//W3C//DTD SVG 1.1//EN" "http://www.w3.org/Graphics/SVG/1.1/DTD/svg11.dtd"><svg t="1513003941268" class="icon" style="" viewBox="0 0 1024 1024" version="1.1" xmlns="http://www.w3.org/2000/svg" p-id="1001" xmlns:xlink="http://www.w3.org/1999/xlink" width="200" height="200"><defs><style type="text/css"></style></defs><path d="M912.314315 474.300376l-352.854397-1.242294L559.459918 118.780267c0-19.643386-15.939017-35.582403-35.582403-35.582403s-35.583426 15.939017-35.583426 35.582403l0 354.028129-358.440625-1.281179-0.102331 0c-19.605523 0-35.512818 15.83157-35.583426 35.473933-0.10847 19.643386 15.798824 35.615149 35.43607 35.68678l358.691335 1.281179 0 354.88566c0 19.675108 15.940041 35.57831 35.583426 35.57831s35.582403-15.903202 35.582403-35.57831L559.460941 544.218796l352.566848 1.242294 0.14224 0c19.6045 0 35.512818-15.830547 35.583426-35.473933C947.820993 490.349911 931.919838 474.372008 912.314315 474.300376L912.314315 474.300376zM912.314315 474.300376" p-id="1002" fill="#515151"></path></svg>