<?xml version="1.0" standalone="no"?><!DOCTYPE svg PUBLIC "-//W3C//DTD SVG 1.1//EN" "http://www.w3.org/Graphics/SVG/1.1/DTD/svg11.dtd"><svg t="1512890038988" class="icon" style="" viewBox="0 0 1025 1024" version="1.1" xmlns="http://www.w3.org/2000/svg" p-id="6824" xmlns:xlink="http://www.w3.org/1999/xlink" width="32.03125" height="32"><defs><style type="text/css"></style></defs><path d="M513.877461 0.015C231.13326 0.015 1.891961 229.260298 1.891961 512.0045c0 174.150429 86.985216 327.973274 219.857491 420.466377 25.937468-90.336147 91.557122-158.346753 180.834292-189.334117a310.080641 310.080641 0 0 1 10.028794-3.286933c0.95398-0.295994 1.903961-0.607988 2.866941-0.899981a328.035273 328.035273 0 0 1 26.494457-6.741862c1.204975-0.253995 2.42495-0.47899 3.637925-0.719985a332.743176 332.743176 0 0 1 24.311502-3.945919c1.379972-0.174996 2.749944-0.366992 4.133915-0.52499a357.90966 357.90966 0 0 1 14.078711-1.358972h18.54562c1.769964 0.120998 3.657925 0.120998 5.549886 0h1.653966c-130.468324 0-236.658147-103.667874-240.85306-233.115219-0.145997-0.091998-0.291994-0.166997-0.437991-0.258995-8.29583-155.100819 131.784297-250.448864 233.387213-248.531903 2.628946-0.087998 5.253892-0.199996 7.903838-0.199996 2.516948 0 5.003897 0.111998 7.495847 0.186996 29.390397-0.49999 61.93573 7.083855 93.210088 21.862552a241.120055 241.120055 0 0 1 57.344824 37.08224c50.606962 43.074117 87.365208 108.055784 83.002298 189.596111l-0.195996 0.116998c-4.119916 129.517344-110.334737 233.257216-240.857061 233.257216h25.982467a356.075698 356.075698 0 0 1 14.057712 1.358973c1.399971 0.157997 2.779943 0.349993 4.170915 0.528989a309.818646 309.818646 0 0 1 14.358705 2.111956c3.299932 0.558989 6.569865 1.166976 9.819799 1.816963 1.254974 0.249995 2.512948 0.47899 3.754923 0.745985a327.785278 327.785278 0 0 1 26.378459 6.711862c1.032979 0.312994 2.053958 0.645987 3.086937 0.96698a310.874625 310.874625 0 0 1 9.762799 3.203935c89.24817 30.962365 154.892823 98.951971 180.90829 189.266118 132.785277-92.501103 219.704494-246.272949 219.704495-420.361379 0-282.744202-229.245299-511.9895-511.9945-511.9895z" fill="#F08E83" p-id="6825"></path><path d="M754.738522 492.396902C690.985829 532.187086 523.810258 474.634266 474.136277 386.907065c-46.32405 81.261334-124.81844 153.234857-201.108876 105.630834 4.195914 129.447345 110.381736 233.116219 240.85406 233.116219 130.517323 0 236.732145-103.739873 240.857061-233.257216zM614.587396 265.601553a260.724653 260.724653 0 0 1 57.344824 37.08224 241.153054 241.153054 0 0 0-57.344824-37.08224z m-93.210088-21.862552c-2.495949-0.074998-4.979898-0.186996-7.495847-0.186996-2.649946 0-5.274892 0.111998-7.903837 0.199996 2.532948 0.049999 5.065896 0.103998 7.553845 0.274995 2.574947-0.179996 5.207893-0.245995 7.845839-0.287995z" fill="#FCE9EA" p-id="6826"></path><path d="M441.970936 732.203984c1.202975-0.253995 2.42395-0.47899 3.636926-0.719985-1.212975 0.240995-2.43395 0.46999-3.637926 0.719985z m13.586722-2.557947z m98.359982-2.632946c1.399971 0.157997 2.779943 0.349993 4.170915 0.528989-1.391971-0.179996-2.769943-0.370992-4.169915-0.529989z m14.012713 1.903961z m-155.321815 10.928775c0.95398-0.295994 1.903961-0.608988 2.865942-0.899981-0.96198 0.290994-1.907961 0.603988-2.865942 0.899981z m169.662521-8.374828c1.249974 0.249995 2.512948 0.48299 3.753923 0.745985-1.240975-0.266995-2.499949-0.49999-3.753923-0.745985z m30.133382 7.457847c1.032979 0.312994 2.053958 0.645987 3.086937 0.96698-1.028979-0.320993-2.049958-0.653987-3.086937-0.96698z m12.849736 4.170915l2.136957 0.757984a119.47755 119.47755 0 0 1-10.474786 22.158546c17.145648 26.403459 12.841737 141.534097-12.924735 123.33847l-45.115074-31.653351-44.999078-31.65335 2.94994-2.079958c-0.98398 0.025999-1.96296 0.075998-2.94994 0.075999-1.029979 0-2.045958-0.053999-3.070937-0.079999l2.94994 2.083958-44.999077 31.65335-45.116075 31.653351c-25.911469 18.229626-30.203381-97.327004-12.882736-123.467468a119.580548 119.580548 0 0 1-10.379787-21.974549c0.733985-0.262995 1.46297-0.520989 2.195955-0.774984-89.277169 30.990364-154.896823 99.00197-180.833291 189.333117C304.593753 990.149694 405.274689 1023.994 513.872462 1023.994c108.664772 0 209.400706-33.886305 292.286005-91.628121-26.011467-90.314148-91.65612-158.308753-180.90429-189.266118z m-155.334814-15.562681c1.379972-0.174996 2.749944-0.365992 4.133915-0.524989-1.387972 0.158997-2.754944 0.349993-4.133915 0.525989z" fill="#CFE07D" p-id="6827"></path><path d="M410.761576 765.887293c3.441929-5.195893 7.733841-6.879859 12.883736-3.258933l45.116075 31.653351 42.045137 29.687391c1.024979 0.024999 2.040958 0.078998 3.069938 0.078999 0.98798 0 1.96296-0.049999 2.949939-0.074999l42.054138-29.691391 45.115074-31.653351c5.174894-3.653925 9.474806-1.911961 12.924735 3.387931a119.47755 119.47755 0 0 0 10.474785-22.158546l-2.136956-0.757984a318.356471 318.356471 0 0 0-9.762799-3.203935c-1.032979-0.320993-2.053958-0.653987-3.086937-0.96698a327.785278 327.785278 0 0 0-26.379459-6.711862c-1.244974-0.262995-2.507949-0.49599-3.753923-0.745985a349.509832 349.509832 0 0 0-14.340706-2.553947 353.646747 353.646747 0 0 0-9.837798-1.374972c-1.390971-0.179996-2.769943-0.370992-4.169915-0.529989a356.075698 356.075698 0 0 0-14.058712-1.357973h-27.636433c-1.891961 0.120998-3.779922 0.120998-5.549886 0h-18.54562a357.90966 357.90966 0 0 0-14.079711 1.358973c-1.386972 0.157997-2.753944 0.349993-4.132915 0.524989a343.509955 343.509955 0 0 0-14.361706 2.107957c-3.341931 0.566988-6.658863 1.178976-9.949796 1.836962-1.212975 0.241995-2.42995 0.46699-3.637925 0.720985a328.035273 328.035273 0 0 0-26.495457 6.741862c-0.96198 0.286994-1.907961 0.603988-2.865941 0.899981a313.481571 313.481571 0 0 0-12.224749 4.061917 119.330553 119.330553 0 0 0 10.374787 21.979549z" fill="#FEFEFE" p-id="6828"></path><path d="M603.995613 762.62436l-45.115074 31.653351-42.054138 29.691391-2.949939 2.078958 44.999077 31.65335 45.116074 31.653351c25.766472 18.195627 30.070383-96.935012 12.924735-123.33847-3.445929-5.303891-7.745841-7.045856-12.919735-3.391931z m-180.350301 0c-5.149894-3.619926-9.441806-1.93796-12.882736 3.257933-17.320645 26.137464-13.029733 141.697094 12.882736 123.468468l45.116075-31.65335 44.999077-31.653351-2.94994-2.083958-42.045137-29.686391-45.119075-31.649351z" fill="#7EA701" p-id="6829"></path><path d="M474.136277 386.907065C523.809258 474.635266 690.985829 532.187086 754.738522 492.396902l0.195996-0.116998c4.361911-81.544328-32.391336-146.526995-83.002298-189.596111a260.527657 260.527657 0 0 0-57.344824-37.08224c-31.274359-14.779697-63.818691-22.362541-93.211088-21.862552-2.636946 0.045999-5.269892 0.107998-7.849839 0.282995 8.341829 29.533394-8.26983 88.298189-39.390192 142.885069z" fill="#F7B970" p-id="6830"></path><path d="M474.136277 386.907065c31.119362-54.585881 47.732021-113.351675 39.390192-142.884069a155.216817 155.216817 0 0 0-7.553845-0.275995c-101.597916-1.915961-241.678044 93.432084-233.386214 248.532903 0.145997 0.091998 0.290994 0.166997 0.436991 0.257995 76.294435 47.603024 154.788826-24.3695 201.112876-105.630834z" fill="#FBCE77" p-id="6831"></path></svg>