<?xml version="1.0" standalone="no"?><!DOCTYPE svg PUBLIC "-//W3C//DTD SVG 1.1//EN" "http://www.w3.org/Graphics/SVG/1.1/DTD/svg11.dtd"><svg t="1512890048508" class="icon" style="" viewBox="0 0 1024 1024" version="1.1" xmlns="http://www.w3.org/2000/svg" p-id="6948" xmlns:xlink="http://www.w3.org/1999/xlink" width="32" height="32"><defs><style type="text/css"></style></defs><path d="M0.725 512a511.529 511.529 0 1 0 1023.059 0A511.529 511.529 0 1 0 0.726 512z" fill="#E9E9E9" p-id="6949"></path><path d="M749.654 847.243c-23.925-9.326-52.052-17.22-83.257-23.335h-0.001c-17.469-3.424-35.886-6.3-55.116-8.53-28.149 7.567-62.257 12.001-99.024 12.001-36.809 0-70.952-4.444-99.12-12.026-20.719 2.397-40.49 5.544-59.15 9.32 1.657 0.568 3.353 1.042 5.035 1.551-1.682-0.509-3.378-0.982-5.034-1.55-29.443 5.958-56.07 13.508-78.893 22.36-0.443-1.29-55.38 29.323-86.951 60.804 88.218 72.283 201.01 115.69 323.956 115.69 123.09 0 236.007-43.5 324.27-115.936-31.552-31.295-86.251-61.692-86.715-60.35z" fill="#1296DB" p-id="6950"></path><path d="M736.696 444.127c-6.498-2.455-13.707-1.277-20.825 2.676 0.63-42.13-5.607-80.258-18.039-110.514h-371.47c-12.923 31.455-19.195 71.39-17.969 115.518-7.14-3.984-14.374-5.176-20.894-2.713-18.481 6.981-24.192 40.186-12.754 74.166 11.436 33.971 35.682 55.854 54.16 48.888 16.633 53.959 41.32 100.463 69.67 135.244 4.98 6.109 10.069 11.864 15.25 17.225v90.654c-0.23 0.026-0.459 0.056-0.69 0.083 28.167 7.582 62.31 12.026 99.119 12.026 36.767 0 70.875-4.434 99.024-12l-0.91-0.11v-90.612c5.217-5.394 10.342-11.185 15.354-17.335 28.29-34.718 52.929-81.112 69.543-134.932 0.494-1.597 43.984 0 54.183-54.1 11.44-33.979 5.73-67.185-12.752-74.164z" fill="#EED5A1" p-id="6951"></path><path d="M697.833 338.04s-2.243 47.27 18.039 115.276c0 0 88.597-257.459-77.92-257.459 0 0-431.238-149.939-329.558 262.678 0 0 2.854 11.493 7.909 20.87 68.313-101.049 294.606-68.314 381.53-141.364z" fill="#5C4948" p-id="6952"></path><path d="M321.34 933.707h92.467v15.814H321.34v-15.814zM511.772 827.368s21.182 35.669 73.844 46.107c0 0 27.113-36.036 25.18-58.108l-99.024 12zM511.724 827.383s-21.183 35.67-73.845 46.107c0 0-27.113-36.036-25.18-58.108l99.025 12.001z" fill="#B9C9C2" p-id="6953"></path><path d="M502.458 853.75a9.314 9.314 0 1 0 18.629 0 9.314 9.314 0 1 0-18.629 0zM502.409 889.491a9.314 9.314 0 1 0 18.629 0 9.314 9.314 0 1 0-18.629 0zM502.409 925.864a9.314 9.314 0 1 0 18.629 0 9.314 9.314 0 1 0-18.629 0z" fill="#56A57E" p-id="6954"></path></svg>