<?xml version="1.0" standalone="no"?><!DOCTYPE svg PUBLIC "-//W3C//DTD SVG 1.1//EN" "http://www.w3.org/Graphics/SVG/1.1/DTD/svg11.dtd"><svg t="1510908618719" class="icon" style="" viewBox="0 0 1024 1024" version="1.1" xmlns="http://www.w3.org/2000/svg" p-id="1218" xmlns:xlink="http://www.w3.org/1999/xlink" width="200" height="200"><defs><style type="text/css"></style></defs><path d="M950.735871 249.578136A516.128984 516.128984 0 0 0 774.22206 73.064324C697.459541 26.986823 607.90327 0 511.950122 0S326.440703 26.986823 249.578233 73.164275A513.829107 513.829107 0 0 0 73.164373 249.578136C26.98692 326.440605 0.000098 415.996877 0.000098 511.950024s26.986823 185.509419 73.164275 262.371889c43.47877 72.364666 104.049195 133.035041 176.513811 176.513812 76.862469 46.077501 166.418741 73.164275 262.371889 73.164275s185.509419-26.986823 262.371889-73.164275c72.364666-43.47877 133.035041-104.149146 176.513812-176.513812 46.077501-76.862469 73.164275-166.418741 73.164275-262.371889S996.913324 326.440605 950.735871 249.578136zM511.950122 73.064324c242.38165 0 438.785749 196.504051 438.785749 438.785749 0 242.38165-196.504051 438.785749-438.785749 438.785749S73.164373 754.331674 73.164373 511.950024C73.164373 269.568375 269.568472 73.064324 511.950122 73.064324z" fill="#FFFFFF" p-id="1219"></path><path d="M685.965154 294.955979c-46.177452-32.883943-98.351977-44.178429-154.324646-36.78204-53.373939 7.096535-98.951684 29.985359-132.435335 72.864421-35.282772 45.277892-47.776672 97.452416-42.379307 154.224695 3.098487 32.384187 13.293509 62.6694 30.185261 90.555783 0.999512 1.69917 1.899073 5.297413 0.999512 6.196975-8.895656 9.395412-18.091166 18.39102-27.58653 27.986334-10.994632-10.994632-20.989751-21.289605-31.384675-31.384675-13.693314-13.293509-33.883455-14.093119-49.775696-2.398829-13.793265 10.195022-18.191118 30.984871-9.495363 47.077013 2.398829 4.397853 5.997072 8.295949 9.495363 11.994144 8.995608 9.295461 18.191118 18.291069 27.886384 27.986335-2.598731 2.598731-4.497804 4.397853-6.296925 6.296925-11.894192 12.094095-24.188189 23.688433-35.582626 36.282284-11.794241 13.093607-11.894192 33.483651-1.199414 46.77716 11.494388 14.392972 31.084822 19.090678 46.87711 10.594826 5.097511-2.698682 9.595315-6.796681 13.793265-10.794729 11.894192-11.594339 23.588482-23.38858 35.782529-35.682577l6.196974 6.196975c9.095559 8.995608 17.991215 18.091166 27.286676 26.78692 8.495852 7.896144 18.890776 10.195022 30.08531 8.295949 14.592875-2.398829 24.587994-10.994632 29.385652-24.787896 4.99756-14.392972 1.899073-27.686481-8.595803-38.781064-9.895168-10.494876-20.290093-20.390044-30.285213-30.385164 0.399805-1.199414 0.499756-1.69917 0.79961-1.999024 7.396388-7.49634 15.292533-14.692826 22.089214-22.58897 4.497804-5.297413 7.896144-4.597755 13.39346-1.599219 73.963885 40.880039 148.027721 40.880039 221.991606 0 8.096047-4.497804 15.492435-10.095071 23.288629-15.092631l25.987311-25.98731c2.198926-3.198438 4.297901-6.496828 6.496827-9.595315 36.582138-53.074085 46.77716-111.345632 33.3837-173.81513-10.294973-48.876135-35.182821-89.256418-76.06286-118.442166z m6.69673 201.201756c-15.392484 54.573353-68.166715 97.852221-123.339776 101.750318-32.783992 2.298878-61.569937-8.695754-87.257394-28.685993-22.58897-17.59141-39.680625-39.28082-49.175988-66.367594-14.692826-42.079453-7.196486-81.160371 18.890776-116.742997 16.491947-22.489019 37.281796-40.380283 63.469009-50.675256 45.277892-17.791313 86.857589-9.99512 125.138897 18.990727 5.497316 4.097999 10.494876 8.795705 14.792777 12.393948 35.182821 37.481698 51.674768 79.261298 37.481699 129.336847z" fill="#FFFFFF" p-id="1220" class="selected"></path><path d="M511.950122 73.064324c-242.38165 0-438.785749 196.504051-438.785749 438.785749 0 242.38165 196.504051 438.785749 438.785749 438.785749s438.785749-196.504051 438.785749-438.785749-196.4041-438.785749-438.785749-438.785749z m216.794143 514.148951c-2.198926 3.198438-4.297901 6.396877-6.496827 9.595315l-25.987311 25.98731c-7.696242 5.097511-15.192582 10.694778-23.288629 15.092631-73.963885 40.880039-148.027721 40.880039-221.991605 0-5.497316-2.998536-8.895656-3.698194-13.393461 1.599219-6.896633 7.996096-14.692826 15.092631-22.089214 22.58897-0.299854 0.299854-0.299854 0.899561-0.799609 1.999024 9.99512 9.99512 20.390044 19.990239 30.285212 30.385164 10.494876 11.094583 13.693314 24.388092 8.595803 38.781064-4.797657 13.693314-14.792777 22.389068-29.385652 24.787896-11.194534 1.799122-21.589458-0.399805-30.08531-8.295949-9.295461-8.695754-18.191118-17.891264-27.286676-26.78692l-6.196974-6.196975c-12.293997 12.293997-23.888336 24.188189-35.782528 35.682577-4.19795 4.097999-8.695754 8.096047-13.793265 10.794729-15.792289 8.495852-35.382723 3.698194-46.877111-10.594826-10.694778-13.293509-10.694778-33.683553 1.199414-46.77716 11.294485-12.593851 23.688433-24.188189 35.582626-36.282284l6.296925-6.296925c-9.695266-9.695266-18.890776-18.690874-27.886383-27.986335-3.498292-3.698194-7.096535-7.596291-9.495364-11.994144-8.695754-16.092143-4.297901-36.881991 9.495364-47.077013 15.89224-11.69429 36.082382-10.89468 49.775695 2.398829 10.394924 9.99512 20.489995 20.390044 31.384676 31.384675 9.495364-9.495364 18.790825-18.590922 27.58653-27.986334 0.899561-0.999512 0.099951-4.497804-0.999512-6.196975-16.891752-27.986335-27.086774-58.171596-30.185262-90.555783-5.397365-56.672328 7.096535-108.946803 42.379307-154.224695 33.483651-42.979014 78.961445-65.867838 132.435335-72.864421 55.872718-7.396388 108.147194 3.898097 154.324646 36.78204 40.880039 29.085798 65.767887 69.466081 76.162811 118.342215 13.193558 62.569449 3.098487 120.840996-33.483651 173.915081z" fill="#FF9D9D" p-id="1221" class=""></path><path d="M640.387408 354.526891c-38.281308-28.985847-79.861005-36.78204-125.138897-18.990727-26.187213 10.294973-46.977062 28.186237-63.469009 50.675256-26.087262 35.582626-33.583602 74.563592-18.890776 116.742997 9.395412 27.086774 26.587018 48.776184 49.175988 66.367594 25.687457 19.990239 54.473402 30.884919 87.257394 28.685993 55.17306-3.798145 107.947291-47.176964 123.339776-101.750317 14.19307-50.075549-2.298878-91.855149-37.481699-129.336848-4.297901-3.698194-9.395412-8.295949-14.792777-12.393948z" fill="#FF9D9D" p-id="1222" class=""></path></svg>