<?xml version="1.0" standalone="no"?><!DOCTYPE svg PUBLIC "-//W3C//DTD SVG 1.1//EN" "http://www.w3.org/Graphics/SVG/1.1/DTD/svg11.dtd"><svg t="1510908648502" class="icon" style="" viewBox="0 0 1024 1024" version="1.1" xmlns="http://www.w3.org/2000/svg" p-id="1880" xmlns:xlink="http://www.w3.org/1999/xlink" width="200" height="200"><defs><style type="text/css"></style></defs><path d="M512 512m-497.371429 0a497.371429 497.371429 0 1 0 994.742858 0 497.371429 497.371429 0 1 0-994.742858 0Z" fill="#45BFE9" p-id="1881"></path><path d="M772.213029 271.594057a22.966857 22.966857 0 0 0-7.255772-16.325486 23.639771 23.639771 0 0 0-16.384-6.495085h-0.468114l-157.432686 2.925714a23.639771 23.639771 0 0 0-16.559543 7.138743 22.703543 22.703543 0 0 0-6.612114 16.5888 23.405714 23.405714 0 0 0 23.639771 22.820571h0.468115l101.493028-1.930971-117.730743 120.334628a222.851657 222.851657 0 0 0-135.489828-45.8752h-4.242286a216.824686 216.824686 0 1 0 4.213029 433.590858h4.330057a218.755657 218.755657 0 0 0 216.122514-220.9792 214.805943 214.805943 0 0 0-50.907428-134.319543l116.589714-119.222857 1.960228 97.397028a23.405714 23.405714 0 0 0 23.669029 22.820572h0.468114a23.698286 23.698286 0 0 0 16.5888-7.138743 22.9376 22.9376 0 0 0 6.612115-16.5888l-3.072-154.799543z m-207.725715 434.029714a173.231543 173.231543 0 0 1-121.300114 52.253258h-3.452343a173.524114 173.524114 0 0 1-119.954286-47.601372 167.906743 167.906743 0 0 1-53.101714-119.339886 171.739429 171.739429 0 0 1 169.691429-173.524114h3.4816a173.290057 173.290057 0 0 1 119.954285 47.630629 167.936 167.936 0 0 1 4.739658 240.581485z" fill="#F6F6F6" p-id="1882"></path></svg>